# xmcd
#
# Track frame offsets:
#	150
#	10877
#	21887
#	37503
#	50849
#	70158
#	91337
#	111145
#	124130
#	141698
#	153598
#
# Disc length: 2244 seconds
#
# Revision: 1
# Processed by: cddbd v1.5PL3 Copyright (c) Steve Scherf et al.
# Submitted via: dBpowerAMP V4.0
#
DISCID=9308c20b
DTITLE=Josh Alan Band - Josh Alan Band
DYEAR=2001
DGENRE=Blues
TTITLE0=Josh's Breakdown
TTITLE1=Strike a Match
TTITLE2=When a Poor Man Gets Rich
TTITLE3=Rollin' and Tumblin'
TTITLE4=Highway 61 Revisited
TTITLE5=Her City
TTITLE6=Mean Town Blues
TTITLE7=No One Owns the Blues
TTITLE8=The Honey Dripper
TTITLE9=Billionaire of the Blues
TTITLE10=As Chanukah Passes Me By
EXTD=
EXTT0=
EXTT1=
EXTT2=
EXTT3=
EXTT4=
EXTT5=
EXTT6=
EXTT7=
EXTT8=
EXTT9=
EXTT10=
PLAYORDER=
